<?xml version="1.0" standalone="no"?><!-- Generator: Gravit.io --><svg xmlns="http://www.w3.org/2000/svg" xmlns:xlink="http://www.w3.org/1999/xlink" style="isolation:isolate" viewBox="0 0 16 16" width="16" height="16"><path d=" M 12 5.5 L 12 10.5 C 12 10.783 11.783 11 11.5 11 L 11 11 L 11 6.462 L 8 8.617 L 5 6.462 L 5 11 L 4.5 11 C 4.216 11 4 10.783 4 10.5 L 4 5.5 C 4 5.358 4.054 5.233 4.144 5.144 C 4.233 5.053 4.359 5 4.5 5 L 4.667 5 L 8 7.417 L 11.333 5 L 11.5 5 C 11.642 5 11.767 5.054 11.856 5.144 C 11.946 5.233 12 5.358 12 5.5 Z " fill="rgb(0,0,0)"/></svg>