<?xml version="1.0" standalone="no"?><!-- Generator: Gravit.io --><svg xmlns="http://www.w3.org/2000/svg" xmlns:xlink="http://www.w3.org/1999/xlink" style="isolation:isolate" viewBox="0 0 16 16" width="16" height="16"><path d=" M 8 4 C 6.914 4 6.778 4.005 6.351 4.024 C 5.925 4.044 5.635 4.111 5.38 4.21 C 5.117 4.312 4.894 4.449 4.672 4.671 C 4.449 4.894 4.312 5.117 4.21 5.38 C 4.111 5.634 4.043 5.925 4.024 6.351 C 4.005 6.777 4 6.914 4 8 C 4 9.086 4.005 9.222 4.024 9.649 C 4.044 10.075 4.111 10.365 4.21 10.62 C 4.312 10.883 4.449 11.106 4.671 11.328 C 4.894 11.551 5.117 11.688 5.38 11.79 C 5.634 11.889 5.925 11.956 6.351 11.976 C 6.777 11.995 6.914 12 8 12 C 9.086 12 9.222 11.995 9.649 11.976 C 10.075 11.956 10.366 11.889 10.62 11.79 C 10.883 11.688 11.106 11.551 11.328 11.328 C 11.551 11.106 11.687 10.883 11.79 10.62 C 11.888 10.365 11.956 10.075 11.976 9.649 C 11.995 9.222 12 9.086 12 8 C 12 6.914 11.995 6.777 11.976 6.351 C 11.956 5.925 11.888 5.634 11.79 5.38 C 11.687 5.117 11.551 4.894 11.328 4.671 C 11.106 4.449 10.883 4.312 10.62 4.21 C 10.365 4.111 10.074 4.044 9.648 4.024 C 9.222 4.005 9.086 4 7.999 4 L 8 4 Z  M 7.642 4.721 L 8 4.721 C 9.068 4.721 9.195 4.725 9.617 4.744 C 10.007 4.762 10.218 4.827 10.359 4.882 C 10.546 4.954 10.679 5.041 10.819 5.181 C 10.959 5.321 11.046 5.454 11.118 5.641 C 11.173 5.782 11.238 5.993 11.256 6.383 C 11.275 6.805 11.279 6.932 11.279 7.999 C 11.279 9.067 11.275 9.193 11.256 9.615 C 11.238 10.005 11.173 10.217 11.118 10.357 C 11.046 10.544 10.959 10.677 10.819 10.817 C 10.679 10.957 10.546 11.044 10.359 11.116 C 10.219 11.171 10.007 11.236 9.617 11.254 C 9.195 11.273 9.068 11.277 8 11.277 C 6.932 11.277 6.806 11.273 6.384 11.254 C 5.994 11.236 5.782 11.171 5.641 11.116 C 5.455 11.043 5.321 10.957 5.181 10.817 C 5.041 10.677 4.955 10.544 4.882 10.357 C 4.827 10.216 4.762 10.005 4.744 9.615 C 4.725 9.193 4.721 9.066 4.721 7.998 C 4.721 6.93 4.725 6.804 4.744 6.382 C 4.762 5.992 4.827 5.781 4.882 5.64 C 4.954 5.453 5.041 5.32 5.181 5.18 C 5.321 5.04 5.455 4.953 5.641 4.88 C 5.782 4.825 5.994 4.76 6.384 4.742 C 6.753 4.726 6.896 4.721 7.642 4.72 L 7.642 4.721 L 7.642 4.721 Z  M 10.136 5.385 C 9.871 5.385 9.656 5.6 9.656 5.865 C 9.655 6.13 9.87 6.345 10.135 6.345 C 10.401 6.345 10.616 6.13 10.616 5.865 C 10.616 5.6 10.401 5.385 10.136 5.385 L 10.136 5.385 Z  M 8 5.946 C 6.866 5.946 5.946 6.866 5.946 8 C 5.946 9.134 6.866 10.054 8 10.054 C 9.135 10.054 10.054 9.134 10.054 8 C 10.054 6.866 9.135 5.946 8 5.946 L 8 5.946 Z  M 8 6.667 C 8.737 6.667 9.334 7.264 9.334 8 C 9.334 8.736 8.737 9.333 8 9.333 C 7.264 9.333 6.667 8.736 6.667 8 C 6.667 7.264 7.264 6.667 8 6.667 Z " fill="rgb(0,0,0)"/></svg>