<?xml version="1.0" standalone="no"?><!-- Generator: Gravit.io --><svg xmlns="http://www.w3.org/2000/svg" xmlns:xlink="http://www.w3.org/1999/xlink" style="isolation:isolate" viewBox="0 0 16 16" width="16" height="16"><path d=" M 5.249 5.097 C 4.453 5.845 3.986 6.932 4.001 8.028 C 4.001 9.167 4.52 10.285 5.383 11.024 C 6.18 11.721 7.264 12.076 8.322 11.986 C 9.469 11.901 10.557 11.288 11.23 10.358 C 11.885 9.474 12.141 8.307 11.924 7.226 C 11.764 6.398 11.33 5.631 10.713 5.061 L 9.957 5.938 C 10.566 6.512 10.898 7.359 10.836 8.194 C 10.808 8.61 10.688 9.016 10.485 9.38 L 8.945 7.893 L 8.169 6.219 L 8.168 8.754 L 9.723 10.26 C 9.03 10.798 8.079 10.977 7.236 10.738 C 6.892 10.643 6.569 10.482 6.285 10.266 L 7.852 8.754 C 7.849 7.93 7.861 7.04 7.852 6.216 L 7.074 7.893 L 5.521 9.392 C 5.047 8.565 5.036 7.496 5.492 6.66 C 5.636 6.392 5.822 6.148 6.042 5.938 L 5.287 5.061 L 5.249 5.097 Z  M 7.956 4 C 7.066 4.006 6.186 4.323 5.495 4.881 L 6.25 5.759 C 6.887 5.255 7.747 5.05 8.543 5.209 C 8.981 5.293 9.398 5.485 9.749 5.759 L 10.505 4.881 C 9.79 4.304 8.877 3.987 7.956 4 Z " fill-rule="evenodd" fill="rgb(0,0,0)"/></svg>