<?xml version="1.0" standalone="no"?><!-- Generator: Gravit.io --><svg xmlns="http://www.w3.org/2000/svg" xmlns:xlink="http://www.w3.org/1999/xlink" style="isolation:isolate" viewBox="0 0 16 16" width="16" height="16"><path d=" M 4.392 8.075 C 4.375 8.075 4.36 8.09 4.358 8.108 L 4.28 8.826 L 4.358 9.528 C 4.36 9.547 4.375 9.561 4.392 9.561 C 4.408 9.561 4.422 9.547 4.425 9.528 L 4.51 8.826 L 4.42 8.108 C 4.42 8.089 4.405 8.075 4.39 8.075 M 4.09 8.351 C 4.07 8.351 4.06 8.363 4.055 8.382 L 4 8.826 L 4.055 9.262 C 4.055 9.281 4.07 9.294 4.085 9.294 C 4.1 9.294 4.115 9.279 4.12 9.259 L 4.19 8.819 L 4.12 8.375 C 4.12 8.354 4.105 8.345 4.09 8.345 M 4.7 7.935 C 4.679 7.935 4.66 7.95 4.66 7.97 L 4.59 8.824 L 4.665 9.643 C 4.665 9.663 4.68 9.683 4.704 9.683 C 4.725 9.683 4.739 9.663 4.745 9.643 L 4.829 8.819 L 4.745 7.969 C 4.739 7.949 4.724 7.929 4.704 7.929 M 5.019 7.9 C 4.994 7.9 4.974 7.92 4.969 7.945 L 4.905 8.825 L 4.975 9.673 C 4.98 9.698 5 9.719 5.025 9.719 C 5.05 9.719 5.07 9.698 5.075 9.669 L 5.155 8.825 L 5.075 7.95 C 5.075 7.925 5.055 7.905 5.03 7.905 L 5.019 7.9 Z  M 5.404 8.02 C 5.403 7.99 5.379 7.97 5.351 7.97 C 5.321 7.97 5.299 7.99 5.297 8.02 L 5.224 8.83 L 5.291 9.684 C 5.291 9.714 5.316 9.736 5.344 9.736 C 5.369 9.736 5.393 9.714 5.393 9.684 L 5.469 8.829 L 5.393 8.015 L 5.404 8.02 Z  M 5.674 7.45 C 5.64 7.45 5.614 7.48 5.614 7.51 L 5.544 8.829 L 5.606 9.684 C 5.606 9.714 5.633 9.738 5.666 9.738 C 5.698 9.738 5.724 9.708 5.726 9.678 L 5.796 8.824 L 5.726 7.5 C 5.724 7.465 5.697 7.44 5.666 7.44 M 5.986 7.135 C 5.951 7.135 5.921 7.165 5.918 7.2 L 5.858 8.824 L 5.913 9.673 C 5.913 9.713 5.943 9.743 5.978 9.743 C 6.013 9.743 6.043 9.713 6.048 9.673 L 6.113 8.824 L 6.049 7.205 C 6.043 7.165 6.014 7.135 5.979 7.135 M 6.308 6.986 C 6.268 6.986 6.238 7.015 6.233 7.055 L 6.178 8.814 L 6.233 9.654 C 6.238 9.693 6.268 9.729 6.308 9.729 C 6.348 9.729 6.383 9.694 6.383 9.654 L 6.448 8.814 L 6.383 7.055 C 6.383 7.015 6.348 6.98 6.308 6.98 M 6.723 6.995 C 6.723 6.95 6.688 6.915 6.643 6.915 C 6.603 6.915 6.563 6.95 6.563 6.995 L 6.513 8.809 L 6.563 9.643 C 6.568 9.688 6.603 9.723 6.648 9.723 C 6.693 9.723 6.728 9.688 6.728 9.643 L 6.783 8.809 L 6.728 6.99 L 6.723 6.995 Z  M 6.973 6.951 C 6.928 6.951 6.888 6.99 6.888 7.035 L 6.838 8.809 L 6.888 9.634 C 6.888 9.684 6.928 9.719 6.973 9.719 C 7.018 9.719 7.058 9.679 7.058 9.629 L 7.108 8.804 L 7.053 7.035 C 7.053 6.986 7.013 6.945 6.962 6.945 M 7.297 7 C 7.243 7 7.203 7.045 7.203 7.095 L 7.168 8.81 L 7.213 9.634 C 7.213 9.684 7.253 9.727 7.308 9.727 C 7.358 9.727 7.398 9.687 7.403 9.632 L 7.443 8.817 L 7.398 7.113 C 7.394 7.059 7.353 7.018 7.303 7.018 M 7.698 6.703 C 7.683 6.694 7.663 6.689 7.643 6.689 C 7.623 6.689 7.603 6.694 7.588 6.703 C 7.558 6.721 7.538 6.753 7.538 6.788 L 7.538 6.809 L 7.503 8.825 L 7.542 9.641 L 7.542 9.644 C 7.544 9.664 7.552 9.689 7.566 9.704 C 7.586 9.724 7.614 9.738 7.644 9.738 C 7.671 9.738 7.697 9.724 7.714 9.708 C 7.733 9.688 7.744 9.663 7.744 9.633 L 7.749 9.553 L 7.788 8.819 L 7.743 6.79 C 7.743 6.756 7.723 6.726 7.698 6.711 L 7.698 6.703 Z  M 8.033 6.521 C 8.018 6.506 8.003 6.501 7.983 6.501 C 7.958 6.501 7.933 6.506 7.913 6.521 C 7.888 6.541 7.874 6.571 7.874 6.601 L 7.874 6.611 L 7.828 8.814 L 7.853 9.219 L 7.874 9.614 C 7.874 9.668 7.923 9.718 7.983 9.718 C 8.043 9.718 8.093 9.668 8.093 9.609 L 8.143 8.804 L 8.093 6.592 C 8.093 6.552 8.068 6.518 8.038 6.499 M 11.016 7.758 C 10.881 7.758 10.751 7.787 10.636 7.836 C 10.556 6.951 9.816 6.257 8.907 6.257 C 8.687 6.257 8.472 6.302 8.277 6.377 C 8.202 6.407 8.187 6.437 8.182 6.496 L 8.182 9.619 C 8.188 9.679 8.232 9.729 8.292 9.734 L 11.021 9.734 C 11.56 9.739 12 9.305 12 8.76 C 12 8.215 11.56 7.776 11.021 7.776" fill="rgb(0,0,0)"/></svg>