<?xml version="1.0" standalone="no"?><!-- Generator: Gravit.io --><svg xmlns="http://www.w3.org/2000/svg" xmlns:xlink="http://www.w3.org/1999/xlink" style="isolation:isolate" viewBox="0 0 16 16" width="16" height="16"><path d=" M 4.696 4 L 4.175 5.392 L 4.175 10.956 L 6.087 10.956 L 6.087 12 L 7.131 12 L 8.173 10.956 L 9.738 10.956 L 11.825 8.87 L 11.825 4 L 4.696 4 Z  M 5.392 4.695 L 11.13 4.695 L 11.13 8.521 L 9.913 9.739 L 8 9.739 L 6.958 10.781 L 6.958 9.739 L 5.392 9.739 L 5.392 4.695 Z " fill="rgb(0,0,0)"/><path d=" M 7.305 8.174 L 8 8.174 L 8 6.087 L 7.305 6.087 L 7.305 8.174 Z  M 9.217 8.174 L 9.912 8.174 L 9.912 6.087 L 9.217 6.087 L 9.217 8.174 Z " fill="rgb(0,0,0)"/></svg>