<?xml version="1.0" standalone="no"?><!-- Generator: Gravit.io --><svg xmlns="http://www.w3.org/2000/svg" xmlns:xlink="http://www.w3.org/1999/xlink" style="isolation:isolate" viewBox="0 0 16 16" width="16" height="16"><path d=" M 11.037 3.568 C 11.556 3.568 11.975 3.988 12 4.482 L 12 12.432 L 11.011 11.593 L 10.468 11.099 L 9.876 10.582 L 10.123 11.397 L 4.938 11.397 C 4.42 11.397 4 11.003 4 10.482 L 4 4.484 C 4 3.989 4.421 3.569 4.94 3.569 L 11.034 3.569 L 11.037 3.568 Z  M 8.777 5.667 L 8.766 5.667 L 8.692 5.741 C 9.457 5.962 9.828 6.308 9.828 6.308 C 9.334 6.062 8.89 5.938 8.445 5.888 C 8.124 5.838 7.802 5.865 7.531 5.888 L 7.457 5.888 C 7.283 5.888 6.914 5.962 6.419 6.16 C 6.246 6.235 6.147 6.284 6.147 6.284 C 6.147 6.284 6.518 5.914 7.333 5.716 L 7.283 5.666 C 7.283 5.666 6.666 5.643 5.999 6.135 C 5.999 6.135 5.332 7.297 5.332 8.728 C 5.332 8.728 5.702 9.371 6.715 9.395 C 6.715 9.395 6.863 9.199 7.012 9.025 C 6.443 8.852 6.222 8.507 6.222 8.507 C 6.222 8.507 6.271 8.531 6.345 8.581 L 6.368 8.581 C 6.379 8.581 6.384 8.586 6.39 8.592 L 6.39 8.594 C 6.396 8.6 6.401 8.605 6.412 8.605 C 6.534 8.655 6.656 8.705 6.755 8.753 C 6.928 8.827 7.149 8.902 7.42 8.951 C 7.764 9.001 8.158 9.025 8.606 8.951 C 8.828 8.901 9.049 8.852 9.271 8.753 C 9.415 8.679 9.592 8.605 9.787 8.481 C 9.787 8.481 9.565 8.827 8.972 8.999 C 9.094 9.172 9.266 9.369 9.266 9.369 C 10.28 9.347 10.673 8.704 10.695 8.731 C 10.695 7.302 10.025 6.138 10.025 6.138 C 9.421 5.69 8.856 5.673 8.756 5.673 L 8.777 5.666 L 8.777 5.667 Z  M 8.839 7.297 C 9.099 7.297 9.308 7.518 9.308 7.79 C 9.308 8.063 9.098 8.285 8.839 8.285 C 8.581 8.285 8.37 8.063 8.37 7.792 C 8.371 7.519 8.582 7.298 8.839 7.298 L 8.839 7.297 Z  M 7.161 7.297 C 7.42 7.297 7.629 7.518 7.629 7.79 C 7.629 8.063 7.418 8.285 7.16 8.285 C 6.901 8.285 6.691 8.063 6.691 7.792 C 6.691 7.519 6.901 7.298 7.16 7.298 L 7.161 7.297 Z " fill="rgb(0,0,0)"/></svg>