<?xml version="1.0" standalone="no"?><!-- Generator: Gravit.io --><svg xmlns="http://www.w3.org/2000/svg" xmlns:xlink="http://www.w3.org/1999/xlink" style="isolation:isolate" viewBox="0 0 16 16" width="16" height="16"><path d=" M 8 4.099 C 5.79 4.099 4 5.89 4 8.099 C 4 9.867 5.146 11.366 6.735 11.894 C 6.935 11.932 7.008 11.808 7.008 11.702 C 7.008 11.607 7.005 11.355 7.003 11.022 C 5.891 11.263 5.656 10.485 5.656 10.485 C 5.474 10.023 5.211 9.9 5.211 9.9 C 4.849 9.652 5.239 9.657 5.239 9.657 C 5.641 9.685 5.852 10.069 5.852 10.069 C 6.208 10.681 6.788 10.504 7.017 10.402 C 7.053 10.143 7.156 9.967 7.27 9.867 C 6.382 9.767 5.448 9.423 5.448 7.89 C 5.448 7.453 5.603 7.097 5.86 6.817 C 5.815 6.716 5.68 6.309 5.895 5.758 C 5.895 5.758 6.23 5.651 6.995 6.168 C 7.315 6.079 7.655 6.035 7.995 6.033 C 8.335 6.035 8.675 6.079 8.995 6.168 C 9.755 5.651 10.09 5.758 10.09 5.758 C 10.305 6.309 10.17 6.716 10.13 6.817 C 10.385 7.097 10.54 7.453 10.54 7.89 C 10.54 9.427 9.605 9.765 8.715 9.863 C 8.855 9.983 8.985 10.229 8.985 10.603 C 8.985 11.139 8.98 11.569 8.98 11.699 C 8.98 11.804 9.05 11.929 9.255 11.889 C 10.855 11.364 12 9.864 12 8.099 C 12 5.89 10.209 4.099 8 4.099 Z " fill="rgb(0,0,0)"/></svg>