<?xml version="1.0" standalone="no"?><!-- Generator: Gravit.io --><svg xmlns="http://www.w3.org/2000/svg" xmlns:xlink="http://www.w3.org/1999/xlink" style="isolation:isolate" viewBox="0 0 16 16" width="16" height="16"><path d=" M 8.023 10.291 C 6.682 10.291 6.083 9.632 6.083 9.137 C 6.083 8.882 6.27 8.705 6.528 8.705 C 7.102 8.705 6.952 9.53 8.023 9.53 C 8.57 9.53 8.873 9.232 8.873 8.927 C 8.873 8.743 8.784 8.54 8.422 8.45 L 7.23 8.152 C 6.27 7.911 6.095 7.39 6.095 6.902 C 6.095 5.886 7.049 5.505 7.945 5.505 C 8.769 5.505 9.743 5.962 9.743 6.571 C 9.743 6.832 9.514 6.984 9.259 6.984 C 8.769 6.984 8.859 6.305 7.871 6.305 C 7.381 6.305 7.107 6.527 7.107 6.844 C 7.107 7.162 7.491 7.264 7.826 7.34 L 8.705 7.536 C 9.668 7.752 9.913 8.318 9.913 8.85 C 9.913 9.676 9.279 10.292 8.005 10.292 M 11.7 8.664 L 11.69 8.709 L 11.676 8.629 C 11.681 8.644 11.69 8.654 11.695 8.669 C 11.735 8.444 11.756 8.215 11.756 7.985 C 11.756 7.476 11.655 6.981 11.456 6.512 C 11.267 6.063 10.991 5.658 10.647 5.313 C 10.298 4.969 9.898 4.695 9.449 4.505 C 9.01 4.294 8.515 4.195 8.006 4.195 C 7.766 4.195 7.525 4.218 7.292 4.263 L 7.332 4.283 L 7.252 4.272 L 7.292 4.263 C 6.97 4.091 6.61 4 6.244 4 C 5.648 4 5.087 4.233 4.665 4.656 C 4.243 5.078 4.011 5.641 4.011 6.239 C 4.011 6.62 4.108 6.994 4.292 7.325 L 4.299 7.283 L 4.313 7.363 L 4.293 7.325 C 4.255 7.54 4.235 7.758 4.235 7.976 C 4.235 8.486 4.335 8.982 4.53 9.448 C 4.719 9.902 4.989 10.307 5.339 10.651 C 5.684 11.001 6.088 11.27 6.537 11.465 C 7.002 11.665 7.496 11.765 8.005 11.765 C 8.225 11.765 8.45 11.745 8.664 11.705 L 8.625 11.684 L 8.705 11.7 L 8.66 11.71 C 8.994 11.899 9.368 12 9.758 12 C 10.352 12 10.911 11.77 11.335 11.346 C 11.755 10.926 11.989 10.362 11.989 9.763 C 11.989 9.383 11.89 9.009 11.705 8.674" fill="rgb(0,0,0)"/></svg>