<?xml version="1.0" standalone="no"?><!-- Generator: Gravit.io --><svg xmlns="http://www.w3.org/2000/svg" xmlns:xlink="http://www.w3.org/1999/xlink" style="isolation:isolate" viewBox="0 0 16 16" width="16" height="16"><path d=" M 8.05 11.755 C 8.03 11.754 8.01 11.754 7.989 11.753 C 7.976 11.754 7.963 11.755 7.949 11.755 C 7.475 11.755 7.171 11.54 6.877 11.331 C 6.674 11.188 6.482 11.053 6.256 11.015 C 6.149 10.997 6.04 10.988 5.931 10.987 C 5.74 10.987 5.589 11.017 5.479 11.038 C 5.412 11.051 5.355 11.063 5.311 11.063 C 5.265 11.063 5.215 11.053 5.194 10.979 C 5.176 10.918 5.161 10.856 5.148 10.794 C 5.115 10.64 5.091 10.545 5.027 10.535 C 4.275 10.419 4.06 10.261 4.012 10.149 C 4.005 10.133 4.001 10.116 4 10.1 C 3.998 10.057 4.028 10.019 4.071 10.012 C 5.226 9.822 5.745 8.641 5.766 8.591 L 5.768 8.587 C 5.839 8.443 5.853 8.319 5.809 8.217 C 5.73 8.03 5.471 7.948 5.3 7.894 C 5.258 7.88 5.219 7.868 5.187 7.855 C 4.845 7.72 4.817 7.582 4.831 7.511 C 4.853 7.391 5.014 7.307 5.145 7.307 C 5.18 7.307 5.211 7.313 5.238 7.326 C 5.392 7.397 5.53 7.434 5.65 7.434 C 5.815 7.434 5.887 7.365 5.896 7.355 C 5.891 7.277 5.886 7.196 5.881 7.111 C 5.847 6.565 5.804 5.886 5.977 5.499 C 6.495 4.337 7.593 4.247 7.917 4.247 L 8.06 4.245 L 8.079 4.245 C 8.404 4.245 9.505 4.336 10.023 5.498 C 10.196 5.886 10.153 6.565 10.119 7.111 L 10.117 7.135 C 10.113 7.211 10.108 7.285 10.104 7.355 C 10.112 7.364 10.179 7.428 10.328 7.433 L 10.329 7.433 C 10.442 7.429 10.573 7.393 10.717 7.326 C 10.759 7.306 10.805 7.302 10.837 7.302 C 10.886 7.302 10.935 7.311 10.976 7.328 L 10.978 7.329 C 11.094 7.37 11.17 7.452 11.172 7.537 C 11.174 7.617 11.112 7.737 10.813 7.855 C 10.782 7.868 10.742 7.88 10.7 7.894 C 10.528 7.948 10.27 8.03 10.191 8.217 C 10.147 8.319 10.161 8.443 10.232 8.587 L 10.234 8.591 C 10.255 8.641 10.773 9.822 11.929 10.012 C 11.972 10.019 12.002 10.057 12 10.1 C 11.999 10.117 11.995 10.133 11.988 10.149 C 11.94 10.26 11.725 10.418 10.973 10.535 C 10.912 10.544 10.888 10.624 10.851 10.792 C 10.838 10.853 10.825 10.913 10.806 10.976 C 10.79 11.031 10.756 11.057 10.699 11.057 L 10.689 11.057 C 10.649 11.057 10.593 11.049 10.521 11.035 C 10.394 11.01 10.251 10.987 10.069 10.987 C 9.963 10.987 9.854 10.997 9.743 11.015 C 9.518 11.053 9.326 11.188 9.123 11.331 C 8.829 11.54 8.525 11.755 8.05 11.755 L 8.05 11.755 Z " fill="rgb(0,0,0)"/></svg>