<?xml version="1.0" standalone="no"?><!-- Generator: Gravit.io --><svg xmlns="http://www.w3.org/2000/svg" xmlns:xlink="http://www.w3.org/1999/xlink" style="isolation:isolate" viewBox="0 0 16 16" width="16" height="16"><path d=" M 11.966 5.524 C 11.672 5.653 11.358 5.741 11.027 5.781 C 11.364 5.578 11.623 5.258 11.746 4.876 C 11.43 5.061 11.08 5.195 10.707 5.27 C 10.409 4.951 9.985 4.752 9.513 4.752 C 8.61 4.752 7.878 5.484 7.878 6.386 C 7.878 6.516 7.893 6.64 7.92 6.759 C 6.561 6.695 5.356 6.043 4.55 5.056 C 4.408 5.296 4.329 5.575 4.329 5.878 C 4.329 6.447 4.618 6.946 5.056 7.24 C 4.788 7.231 4.535 7.157 4.315 7.035 L 4.315 7.055 C 4.315 7.848 4.878 8.509 5.627 8.66 C 5.49 8.696 5.345 8.716 5.196 8.716 C 5.092 8.716 4.992 8.706 4.892 8.688 C 5.101 9.337 5.704 9.81 6.422 9.823 C 5.863 10.262 5.156 10.523 4.394 10.523 C 4.264 10.523 4.135 10.515 4.005 10.501 C 4.732 10.964 5.59 11.235 6.517 11.235 C 9.526 11.235 11.169 8.744 11.169 6.587 C 11.169 6.517 11.169 6.447 11.164 6.377 C 11.484 6.148 11.762 5.859 11.982 5.53 L 11.966 5.524 Z " fill="rgb(0,0,0)"/></svg>