<?xml version="1.0" standalone="no"?><!-- Generator: Gravit.io --><svg xmlns="http://www.w3.org/2000/svg" xmlns:xlink="http://www.w3.org/1999/xlink" style="isolation:isolate" viewBox="0 0 16 16" width="16" height="16"><path d=" M 11.833 6.068 C 11.739 5.73 11.475 5.466 11.137 5.371 C 10.513 5.204 8.004 5.204 8.004 5.204 C 8.004 5.204 5.5 5.201 4.87 5.371 C 4.533 5.466 4.268 5.73 4.174 6.068 C 4.056 6.706 3.998 7.354 4 8.003 C 3.998 8.65 4.056 9.296 4.174 9.932 C 4.268 10.27 4.532 10.534 4.87 10.628 C 5.493 10.796 8.004 10.796 8.004 10.796 C 8.004 10.796 10.507 10.796 11.137 10.628 C 11.475 10.534 11.739 10.27 11.833 9.932 C 11.948 9.296 12.004 8.65 12 8.003 C 12.005 7.354 11.949 6.706 11.833 6.068 L 11.833 6.068 Z  M 7.203 9.201 L 7.203 6.802 L 9.291 8.003 L 7.203 9.201 L 7.203 9.201 Z " fill="rgb(0,0,0)"/></svg>