<?xml version="1.0" standalone="no"?><!-- Generator: Gravit.io --><svg xmlns="http://www.w3.org/2000/svg" xmlns:xlink="http://www.w3.org/1999/xlink" style="isolation:isolate" viewBox="0 0 16 16" width="16" height="16"><path d=" M 10.455 7.288 C 10.571 7.288 10.665 7.383 10.665 7.498 C 10.665 7.613 10.571 7.708 10.455 7.708 L 9.87 7.708 L 9.87 8.083 L 10.455 8.083 C 10.571 8.083 10.665 8.177 10.665 8.293 C 10.665 8.408 10.571 8.503 10.455 8.503 L 9.66 8.503 C 9.545 8.503 9.451 8.408 9.451 8.293 L 9.451 6.703 C 9.451 6.588 9.545 6.493 9.661 6.493 L 10.456 6.493 C 10.571 6.493 10.665 6.588 10.665 6.703 C 10.665 6.819 10.571 6.913 10.455 6.913 L 9.87 6.913 L 9.87 7.288 L 10.455 7.288 Z  M 9.17 8.293 C 9.17 8.383 9.112 8.463 9.026 8.492 C 9.005 8.499 8.982 8.502 8.96 8.502 C 8.889 8.502 8.829 8.472 8.79 8.419 L 7.975 7.313 L 7.975 8.293 C 7.975 8.408 7.882 8.503 7.765 8.503 C 7.65 8.503 7.556 8.408 7.556 8.293 L 7.556 6.703 C 7.556 6.613 7.614 6.533 7.7 6.504 C 7.72 6.497 7.745 6.493 7.764 6.493 C 7.829 6.493 7.889 6.528 7.929 6.578 L 8.75 7.688 L 8.75 6.703 C 8.75 6.588 8.844 6.493 8.96 6.493 C 9.075 6.493 9.17 6.588 9.17 6.703 L 9.17 8.293 Z  M 7.256 8.293 C 7.256 8.408 7.162 8.503 7.046 8.503 C 6.931 8.503 6.837 8.408 6.837 8.293 L 6.837 6.703 C 6.837 6.588 6.931 6.493 7.047 6.493 C 7.162 6.493 7.256 6.588 7.256 6.703 L 7.256 8.293 Z  M 6.434 8.503 L 5.639 8.503 C 5.524 8.503 5.429 8.408 5.429 8.293 L 5.429 6.703 C 5.429 6.588 5.524 6.493 5.639 6.493 C 5.755 6.493 5.849 6.588 5.849 6.703 L 5.849 8.083 L 6.434 8.083 C 6.55 8.083 6.644 8.177 6.644 8.293 C 6.644 8.408 6.55 8.503 6.434 8.503 Z  M 12 7.438 C 12 5.648 10.205 4.191 8 4.191 C 5.795 4.191 4 5.648 4 7.438 C 4 9.042 5.423 10.385 7.345 10.641 C 7.475 10.668 7.653 10.727 7.698 10.837 C 7.738 10.938 7.724 11.093 7.71 11.197 L 7.656 11.537 C 7.641 11.638 7.576 11.933 8.005 11.752 C 8.436 11.573 10.311 10.393 11.151 9.427 C 11.725 8.798 12 8.153 12 7.438 Z " fill="rgb(0,0,0)"/></svg>