<?xml version="1.0" standalone="no"?><!-- Generator: Gravit.io --><svg xmlns="http://www.w3.org/2000/svg" xmlns:xlink="http://www.w3.org/1999/xlink" style="isolation:isolate" viewBox="0 0 16 16" width="16" height="16"><path d=" M 10.816 10.8 L 9.631 10.8 L 9.631 8.944 C 9.631 8.501 9.622 7.931 9.014 7.931 C 8.396 7.931 8.302 8.413 8.302 8.911 L 8.302 10.8 L 7.117 10.8 L 7.117 6.983 L 8.255 6.983 L 8.255 7.503 L 8.27 7.503 C 8.429 7.203 8.816 6.886 9.394 6.886 C 10.594 6.886 10.816 7.676 10.816 8.705 L 10.816 10.8 L 10.816 10.8 Z  M 5.779 6.46 C 5.596 6.46 5.421 6.388 5.292 6.259 C 5.163 6.13 5.091 5.955 5.091 5.772 C 5.091 5.393 5.398 5.084 5.779 5.084 C 6.159 5.084 6.467 5.393 6.467 5.772 C 6.467 6.152 6.159 6.46 5.779 6.46 L 5.779 6.46 Z  M 6.373 10.8 L 5.185 10.8 L 5.185 6.983 L 6.373 6.983 L 6.373 10.8 Z  M 11.408 3.983 L 4.59 3.983 C 4.264 3.983 4 4.241 4 4.559 L 4 11.406 C 4 11.725 4.264 11.983 4.59 11.983 L 11.407 11.983 C 11.733 11.983 12 11.725 12 11.406 L 12 4.559 C 12 4.241 11.733 3.983 11.407 3.983 L 11.408 3.983 L 11.408 3.983 Z " fill="rgb(0,0,0)"/></svg>