<?xml version="1.0" standalone="no"?><!-- Generator: Gravit.io --><svg xmlns="http://www.w3.org/2000/svg" xmlns:xlink="http://www.w3.org/1999/xlink" style="isolation:isolate" viewBox="0 0 16 16" width="16" height="16"><path d=" M 10.329 11.288 L 10.329 9.154 L 11.04 9.154 L 11.04 12 L 4.615 12 L 4.615 9.154 L 5.325 9.154 L 5.325 11.288 L 10.329 11.288 Z  M 6.037 10.577 L 9.617 10.577 L 9.617 9.865 L 6.037 9.865 L 6.037 10.577 Z  M 6.123 8.96 L 9.617 9.689 L 9.767 8.999 L 6.274 8.27 L 6.123 8.96 Z  M 6.576 7.274 L 9.811 8.784 L 10.112 8.134 L 6.877 6.624 L 6.576 7.27 L 6.576 7.274 Z  M 7.481 5.679 L 10.22 7.964 L 10.673 7.424 L 7.935 5.14 L 7.485 5.679 L 7.481 5.679 Z  M 9.25 4 L 8.668 4.431 L 10.803 7.299 L 11.385 6.868 L 9.25 4 L 9.25 4 Z " fill="rgb(0,0,0)"/></svg>